<mxfile host="65bd71144e">
    <diagram id="XmecPYEXCqVQBWqfky-f" name="第 1 页">
        <mxGraphModel dx="428" dy="215" grid="1" gridSize="10" guides="1" tooltips="1" connect="1" arrows="1" fold="1" page="1" pageScale="1" pageWidth="827" pageHeight="1169" math="0" shadow="0">
            <root>
                <mxCell id="0"/>
                <mxCell id="1" parent="0"/>
                <mxCell id="2" value="" style="whiteSpace=wrap;html=1;aspect=fixed;" vertex="1" parent="1">
                    <mxGeometry x="3" y="80" width="290" height="290" as="geometry"/>
                </mxCell>
                <mxCell id="3" value="Execution Context Stack" style="text;html=1;align=center;verticalAlign=middle;resizable=0;points=[];autosize=1;strokeColor=none;fillColor=none;" vertex="1" parent="1">
                    <mxGeometry x="35" y="50" width="150" height="20" as="geometry"/>
                </mxCell>
                <mxCell id="5" value="Global Execution Context" style="text;html=1;strokeColor=none;fillColor=none;align=center;verticalAlign=middle;whiteSpace=wrap;rounded=0;" vertex="1" parent="1">
                    <mxGeometry x="22.5" y="210" width="175" height="30" as="geometry"/>
                </mxCell>
                <mxCell id="9" value="VO(variable Object):GO" style="swimlane;" vertex="1" parent="1">
                    <mxGeometry x="35" y="290" width="200" height="60" as="geometry">
                        <mxRectangle x="35" y="290" width="170" height="23" as="alternateBounds"/>
                    </mxGeometry>
                </mxCell>
                <mxCell id="11" value="" style="rounded=0;whiteSpace=wrap;html=1;" vertex="1" parent="1">
                    <mxGeometry x="354" y="90" width="136" height="280" as="geometry"/>
                </mxCell>
                <mxCell id="13" value="执行代码&lt;br&gt;console.log(num1)" style="text;html=1;strokeColor=none;fillColor=none;align=center;verticalAlign=middle;whiteSpace=wrap;rounded=0;" vertex="1" parent="1">
                    <mxGeometry x="70" y="320" width="60" height="30" as="geometry"/>
                </mxCell>
                <mxCell id="14" value="GO" style="text;html=1;strokeColor=none;fillColor=none;align=center;verticalAlign=middle;whiteSpace=wrap;rounded=0;" vertex="1" parent="1">
                    <mxGeometry x="380" y="50" width="60" height="30" as="geometry"/>
                </mxCell>
                <mxCell id="16" value="" style="shape=image;verticalLabelPosition=bottom;labelBackgroundColor=#ffffff;verticalAlign=top;aspect=fixed;imageAspect=0;image=data:image/png,iVBORw0KGgoAAAANSUhEUgAAAYYAAAE2CAYAAABlSjWQAAAACXBIWXMAABYlAAAWJQFJUiTwAAAgAElEQVR4nO3dd3wUZeIG8Ge2ZVM2PaQXkhAIvQYCIh0VKYLYUCkWsJye7e7UO/U4zzvPgvo75VRERRBEAQUUEDACgnQQCCSEmEAIBNJ7spvdnd8fG2YzbMqGbMqG5/v58GHmnXdm3uXOeXbmfeddISIiQgQREVEtRXs3gIiIOhYGAxERyTAYiIhIhsFAREQyDAYiIpJhMBARkQyDgYiIZBgMREQkw2AgIiIZBgMREckwGIiISIbBQEREMgwGIiKSYTAQEZEMg4GIiGQYDEREJMNgICIiGVV7N4CIrB577LFr2m/x4sUObgldz3jHQEREMrxjIOqA3l36f3bVe+rBJ1u5JXQ94h0DERHJMBiIiEiGwUBERDLsYyByEsN75eDVuSKigwGtFoAS2Hh4H07lDGvvplEnw2BwAmpXdyjVGlSXFjVYR+Ouw9RFqyAI8pvAspxsbHllfqu0a9B9TyB0QCLKLmbh57efb5VzXC1q2FgMeeA5m/LMX37EoeXvtUkb2kNUUAXW/lMEBHm5SqFvnwZRp8Zg6KC6Dp+AhIf+DK+QSKi0LgAAswkoz83Grx8sRMburbL6Wp0XunTvY3Mcn4jYVmtj3MQZ8ImIhrHX4DYLhi49+iMgrpdNudlo7NTBsHB2iRQKuw4Dr69yQdZlL8y+68b2bRh1SgyGDihx/gsYMOsRm3KFEvAMDsPN/1yCH195FL/v3CRtqyzMw4l1y6T1uIkz4eLh3ibtbUuZu3+Ei6e3tN5n+hybb9GdUVRw7YII3PPPEJjF2lXxOvjw1OYYDB3MyCf/gT4z5lhWRODsvp+RtfcnGA1VCB94I2LGTIZCrYTSRSvbz2jQ45f/e1laDx0wHC4e3dqy6W0iL/0k8up8zt5TZ0NQdf6Lo6+H5W+jHlIoELUWBkMHotK4oPfU2ZYVEdj26h9wJmmjtD11yxrsfPdFTH5zBQylxe3USmoPQm32mUzt2w66PjhFMHjdcA8Uai0Ml86gImV3vXVU7t7QJUwHAFSl/oLqnHRpm6B2gUev0XCJTYDSuwug1cFUeAHGC6dReWoXDHlnGz2/Z+IdUGo9UH3+BKrSD0ETEAW3vuOh6TYEgtGAmqyTKN65AmZ9eYs+54jHX5G+/Z799SdZKFxhqCzHusdva9F5GhI/6S5EJU6ET1fLnUbh76nI2PUD0n5a3+S+ald3DJz1GCKGjoHW0wf5Z04i5YeVOLsvqd76GjcP9JpyL8KHjYW7XyA0bu4oz72I/LRkpG5dg8unjjr0sxGR/ZwiGLRDpkLp1QXaGj0qXptUbx2PYTPhOvIeAEB15mGpXO0dhICnvrSpr/QPhyZuGNzGzEHFto9QsufrBs/vMf4hQKmCMmUPtDFD4Jo4U36ssJ7wjx6A3A8XXMvHk8SMnSot7//49RYdqznUru647b1vbDp1vcMiET3qJvScej82PDcL5hpDvfsLCiVmrdgJd78AqUwXFIKuIyfg+JrPsfv9V2T1/SLjcNeybTbHcffvgsCe/dHrtvtwbPUS7PnfPx3w6ToHraa9W0DXE6cIBv2RzXAbMweC2gWuMQNR9fsRmzra/hMBAGZDFarOHrduUFo/oin/PEy5Z2EquQyVZxeo4kdAUCjhPmEBRJMRpfvWNdoOVUQvaOJHWM5TVgBzcQ4Ed18ofUNsholeC42bDgBgrNaj4Fxai49nr2mLvpJCwVxjQs7JwxAEAYG9BkGpUiCk3xDc+u/PsPG5e+vdX6lRwd0vAEa9ATknDsDF3RNdevQFBKDvzLkoyDiFlE2rpfoKtfUqV5Gfi5IL51CRexFuAcEI6ZcAQQD63fUwjAYD9i99o3U/fCN8fX3xxhvNO/+vv/6KTz/91KHt8HQzwd3TslxZ7dBDE9XLKYKh/OB6uI2xdMh6JEy3CQa1bxgUOj8AgCH5Z9k2c2Up9Ie/R8nOFTCW5sm2KV09EfjcN4BSBbeR9zYZDAp3b4hGA4q/fAFVmb/Jzq+NHXTNnw+w9C8olJZlQ2VFi47VHH6RcegS3xcAUFNZjRX3jkBVUT4AQNclFPcs3wGViwbhg26AR0AwyvNy6j2OobIKK+5OlN61iBo2FpP+/RkgAEMfel4WDBVFucj8ZTv2fvhPFF/IlB3H1ccfc9YchkIJ9Ln9gXYNBp1Oh5CQkGbt06uX7VDalpp/62Vp+ezlRioSOYhTBIOxsgTG3AyoukRDHZtg6YkTrUMzdEOtz9zL966V7WuqKkXBxnfqPa6pqhT61D1w6TUKCnfveutcrezb12WhAAA1hdmoOZBt78epl19sT2lZXy7vWHb18Uf0DTfLyvQlBUjftblF5wSAQXOflpYPLVskhQIAlOVewLGvl2DQ/Y8DAjD4viex450X6j3OkS/ek72Ad3ZfEgoz0+AbHQc3X1/4RsSiMMvS71NZkIvNLz1Y73GqivKRc2I/QvsPhcbNtcWfryVKSkqQkZHRrH2OHLG9m20ujUqPZX++CK0LEBMEhIbWbjACTy/Wtfj4RE1ximAAgOqDG+Fx6x8t3+67D0dl6h5pm0vfcQAAsbyowY5khcYVHr1HQ+EXAaV3IAS15aUxVbB1SKeg0kA01v8cHQBEfQXKT+50wKexpdG6Sctmo1G2LfqGmzHq2ddkZUa9Aem7Wj4c1TMkXFr+7ZtPbLYfXbXYEgwAvCJjGjzO0TVLbMrSf/4eCdHPAAD8e/SVguEKjbsOvafNhk9EN3gEhUClsQzB9QqPluqoXFxh1Fc14xM5TnFxMf7whz+0+XndNGWYOFxedvw0MO2lIFQbOL0ZtT6nCYayoz9CN+lJiIIA94TbpGDQBsdCcLU8gK06uqXefb0nLIBr4u0QrjyraYCgUKKxIeLm4ta7j89LPyUtaz08ZdtMxtab9sDdLxAAIBpFiGbbsZCGynJABCAAHv7BNtsByxvZ4lVhBgAlF6zftn0j42Tbxj3/LuJumi4Nw2yIUqNpt2BoL5UGHXYcBNy0QPcwwMsH6Nsd+P2LSxjyuC8uFmibPghRCzhNMIhGPQxZJ6CO7AtVVD8IChVEsxHuQ2dIdcr2f2uzn/eo2XAbcScAQBBF1Jw7DmPeOYiVpQAAdfdhUAXVThshNB4cppJcB30aW9WlRdIFWO3hJduWuvkbpG7+BgAwd+0RuPn5Oey8ahfLnYrJVNNgHdEkQlAJULs28CZ1PYECACaDNdC0OutnGvXUa+h+8/TagwMFmWkoOZ8JfWkhACB08Eh4BocBABRNhHlrEgQBPXr0aNY+eXl5yM/Pb7piIwxGF9zzmrVvY8XzFzFuGKDQAv99ohC3/715/R5EzeU0wQAAVQe+gzqyr2UkUe/RKD++HeqelrliTIXZMJUX2OyjrQ0FsUaPy+/db1PHzzfUGgxNaeW3i2qqq6F21ULj6gq1qztqqlq/E7qqtBAanQeUmobHQ155t6KquP4LnkJV/8Xb1ds6fLXkwllpOf5Wy7Bik9GMVfffiNKc87L9pr69SgqG9hQREYG33367WfukpKTg2WefdWg7/vqpD8YNs/TfdG//fxa6DjjVA8uKU78AJssjC7chU+Ea1RcKjaWDsurg9zb1FS4e0nbD8e31Boc6qOHn5m0t9/Qxy4IADJz1eIuOZap950Dl4tLoI7Qro4wEAfAMsr3qBMRaR9mUXr5Q/0EEwCs40nbfuN7SckFmKgDA1csXCrWlPef3/2wTCgDgU6ePoSnm2rsVD/9Au/dxNudyXVFVZln2aN/+eLpOONUdgyiaYUjbD038CKjDesJ9+F3StvLDtsEgmq2PR5T1BIA2rAcUARGt09hrsPPNv2DWlzsAAH1nPohjaz9BdXHhNR2r9MI5y7sJAhA5dDTO7v2p3nq5p44itP9QAMCwh57H1n/KO1sTHvqztHzp2P4Gz5fw8F+w7R+Pycqix0yxLIjApZOW0TqmOi/JeUfa3qmFDx4J9y5BjXwyueqyIrj7BcA9IAiCQgHRbLZ736ZkZWXhiSeegNBUR0gdLX2M1JBKPeDKAUnURpzqjgEAKvavAQCIggBNnOUHSowXUmE22HZQijV6qVwV2gMevUZJ355du/aHz5xFbdRq+xRfyMTlU5a7BrWrFvev2otuY6dA5WL5mhh74y1w8fKx61gZv1hnXp3w0mIMuOsR+EbEwjciFho3D2nb/s/ehslouZjGjpuCfjMfkrYNvv+PiBw2GoBlFNRv33zc4Pm6jbkVvabcB8DSiT/p359Dq7NcybKP/ApDheUrr6GyHOYay7d877BI9Jk2G4LK8v0keuRNmPT6F3Z9visuJ9cODxWAWct3IvbGW6TP2dRgg6aIoojff/8d6enpdv8pLm7dOayUnX++QOoAnOqOAQCqzh6Hl6FKekQEAJUHvmu4/s4VcJ/wMADA846XoTObIIii9Ea0qK+A4NJxpqfe+Nws3P7hRvhEREPtqsWEl9+3bKjtmL6iqjCv3v2vOJO0EYkL/gqPwGCo3bRIfPQFJD5qeQchfftG6c7AXGPA0RX/xeC5fwQEYMQfXsLwx18CANmIof1L/tP4t3EBGPXsaxj51GtQKKxtFY0idr4l/62GE+s+Q7+7LAE08ulXccNTr0I0Q3rBz6g3QOVi3xwQO97+C7qOmAhBJcArNAIT//GhtG3L3x62+d0KZ1VeBfgBUHFqDGoDTnfHAMjfbhbNJlSc+LnBuiV7vkLV3jWWMIDl2yyUKohmE6p2r0LVr2vq1G7iMYTouMcUDTFUlmPV7DE4s3U9RGOdwbNXLrQikPztF1hx7w1NHmvl/aNw/tBumAzyoaRXX+APfL4I2//1tHTnIAh1ZvM0GLHlpfk4tsb2HQextjO+pqoax1Z/Aoi1F/fafQ1l5fhq7liU5JyT7bfnf6/izNb1uDI2WBAs+4kikLp5DU5vts5bJYqNzzFdXVqElfePQlFWpvzfC4C5E01FmnPliaIKGNPvYru2hTo/ISIi4rqY3V3h4gGX8B5QeQVBn30KhsvNe6O1vei6hCJqxARAEHDh0C82L4k5mm9ELMKGjIJoNuH8gZ02U1Y0RlCpEHPDzfAICEbm7q02gXA1Vy9fhA0aAa/QrrhwdC9ykg+2tPlO77HHLP007y79P1n5XaMv4t2nrOvV5UBFNbA1bS6yCnpg8eLFbdlM6uSc7lHStTLry1GVfqi9m9FsZbkXcOLbz9vsfIVZ6dccPqLRiPQdtoMAGlJVUljv1OJka/WOENw85CJuHg5AALQelj/e53OQhea9a0HUlOsmGIic3bw3Q+DmYkbPyAJ0DaqBvxfgF96yyRuJ6sNgIHIilXoFDqUF4FDtrOxPPejZ+A5E18ApO5+JiKj1MBiIiEiGwUBERDIMBiIikmHnM1EH9NSDT7Z3E+g6xjsGIiKS6fBvPs+YYfkhnnXr1rVzS4iIrg+8YyAiIhkGAxERyTAYiIhIhsFAREQyDAYiIpJhMBDZydPVBbOGxCMhUv6b1BqVEluenIktT86ERiX/OdGbekXhsVH9EebtASJnwRfcmkFQKKHrEoyy3IsO/dH51jLi0Zfg0SUEF4/vb9PfdOiI4oN8MSw6FABw8GwOki/mAwC83bSY3r8bACCrsAQ/pWY1eIyRsaGYN6I3qmqMmP6/9TDV+f+AUmH7Y8w+blo8O34wBEHA7vQLyC4ur/e4dyfEw1WlgsFowpcHTknlY7qHI8rPGwCw/lg6Citsf9ecqDUwGJrgovPCxJcXI7hvgux3iEWjiKKsM0j/eSMOLf+/Bvf3i4yD2tUN5QWXUZ6X0xZNlvS6bTZULhr4RMZe98FwY1wEZg60BICHVi0FQ4SPDrMSLD90k11U3mgw/HAiA7OGxKOLpxvmJvbG0j3HGz3nnyYmQBAE/Jadi+MXGv6N7gcSe0Go/S3VusFwb0JPRPpZptU+fiGPwUBtho+SGhEQ1xfzvjuO8CE32Pw4vaAS4Bsdh4QHn230GHd8sgUzPlyPW15b2ppNpTbyr837AAB3DIqDu0bdYL3YAG8MiQqEKIr4zxb+ZCk5F94xNEBQqTDt7VWWH7cHUF1SgvOHdyNj5/fwDApHUL9hiBw6VtreEWXu3Az3wBBcOLKnvZvitAQAId46ab24yoCvD6WhoKISfh5aeJu1UCutj5FCvNxRYxJRXWPEkl+OQ6tRwUWlRGidY+SVV8JgNLXlxyBqFgZDA2JvvAUanaXDMPvoPmx4+i55hdUfQeXiioR5z7RD6+yz7V+ciK2lbogNw8uTE+2uv+T+m2zK7h/aU7b+2qZ92JF2vsVtI2otDIYGhA0YIS0f+uzteusY9VX49cPXZGWBPQeg5y3WEBFqR6l4BUdizLOvy+pm/roNZ/f+ZHNcVy9fDHvozwCAE98uQ8HZNESPvAndb74DATE9UVVajLO7f8TBL96DaLZ+83T18ceAuxbYHC839RjSd3xf72fQuHlgxKN/AwAkb1wJQ1kJet92P8KGjILa1Q2FGaex5/2FKMk5V+/+ANB1+ATE33oP/GN7orIwD+cP7cLhFe+j99T74ObXBZdTjuL3nZvq3Tdu4gwE9xosrZ/a+CXy0k82eK62VmGoQVGFvt5tSoVlpFJdxVUGiObGpx8rrTY4rH1ErYHB0ACtd4C0HNJvGC4eP2DXftE33Iz4KffYlGt0HjblWr/AeoPBJzJWqluScx63vP45dF2sQyTduwTBP7YH3AOC8fObf5LKA3v0Q/+759scrzAjrcFg0AWESOdSumjRbextEFTWRyOewWGIGDYO6/84EznJts/KRz6xEH1unyutewQGo0t8X3Qbfxs8/IOhUCuRn57aYDAMvPtR+EbHSeuVhXkdKhiOZF3GnUs22JT761zxzh1j4ekKrDuahhkDLJ9B56LG4azL2HgsHfszc9ChZ6gkagCDoQH56cnoOnI8AKD/nQuQtv1blOY0ffufc+IAgk4MkdaDew8CBMCoNyAv7YSsblY9oXC1gfc8ZnmkJQKVRYWoLiuCu18QXDzcoVDKOzjKLp5H/pkUad0/Nt7ykNxOcROnAwCKsjJRkXcRgfGDoHbTQqEERj37b3w1b7ysfq8p91lDQQRy006guqQYIX0T4BkcZv+J24JoHVoqitbLtVls3qVbpVRgVkI87kuIhyAIWH8sHUv3JEvBcLG4HAlRQUiICoLRZMbBs5ewbN9J/J5X3Pwm111uZjuJWoLB0IAT65dh0OynoFBavu3ft2o3ynIu4PyBnTi9bV29354B4Ozen2R3AY9sy4BCrUTRuTP49okZzW6HRueBqqIifPuH6Si+kCmVdxt/G4SrLhYF59Lw9cM3S+vzfzxjM5qqKTvfehEnv/8SAKBQazDv29/g4uEO367dICgUsvc3Eh6svVsRgU0vPiB9bhedF+5btRcuHu7NOndr+mTPCazYbwnNaqNRKk++mI/bFn8HAKhp5N0UHzct7hrcA1P7RkOtUkIURXy2JxkrD6bIXmp7ZOU2+Hu44t6EeIztHoHEmBAkxoTgfGEZlu8/iR2nz9vcRUxd/B2UggDTVf97Pr5qO9QKy8DBSkNNSz4+UbNwuGoDqosLsePNZ1HnET50waHoOW0Wpr+/Bg9vPo1RT73W8AEcRQTWLLhVFgoAcGb7d0j7ab1DT1WWe0kKBQAw1xjwe51zeIdEScsBsb3h6m15+So/PUUWhvqyEhxd8V+Htq2lTGYRFYYaVBhqYLqqD+BKeX0jhSJ8dVhy/034ev4U3D6wG9QqJTLzSzD7s81YeTDFpj5guWt4c+tBTP7gWyzfewpGkxnhvjq8eMswLJs3yaZ+dY0RFYYaVNcYZeUGo0lqG+8XqC3xjqERqVvW4PyhPbjxj68ibPBIqF210ja1qxa9brsPkYnjsPzeGyAajY0c6dpdPn0CZbkXWuXYV8s9ecSmrOj879KyZ2gEirIzAABd4vtL5Wlb19rsd3zdpxj2yPNNnnPDn+6Fu08Xaf3qAGxvuWVVCPJ0AwCkXS7CR7uO2bysZjCasOlEBlRKhSx0TGYzvth/El8dTsW84X0wvX8s1h1Na9P2E10LBkMTKvJzsPmlhwAAvhGx6DZhBmLHTIFXWAQAS2fr6Kf/LesEdqTis213ISnNsX3rV19RIi2rtG7Ssm9Xa4dxcW1Y1GU06CGKgNBEH0dlQS4qC3KvobVto7rGiL+s3YVygwFZhWX11okJ8MakPtEAgEXbD9tsNxhN+GjXb1i65ziMpo4/lQoRHyU1Q2FWOvYvfQNf3jcSO9/+q1QeO2Zqq52z5MLZVjv21UyG+odl1kftau0/qKmqaI3mdAiuGjVyKypRWWOEv8613j+juoUDsPQD+Li7NFjP282yTaXkf3bUsfGO4Rqd3LgCNzyxEEqNSvaIydHMNR2z07H4vPUuwTMkEhd+22dTp6m7BWfwwPDeuK1/rF113TRqrHpwcpP11h45gw93/dbSphG1GgZDC5RdzoZ3eJRddRXKzvVPXZhh7XgNHzgSKZtWy7aHDRhu13GGzHkaYYNvkNYPLXsX5w/94phGOkB+eRVKqxq+k9JpNdIEeFc0Vh8AiiqrHdK2ukaPHo3x463DiZOSkpCUlOTw89D1oXNdrRwosHs/dOnRDyfWf1Hvdq2nD7yCIwEAhqqGZ72sqaqAi9oTbn6BrdLO9pJ9dC/MJkChBKJHTYLqDRcY6zyKkoayNiFm1CTZC25BvQZ3qGBYfSgVqw+l1rvN09UFXz4wCVq1CqVVeukt6PS8Ery0YXebzoeUmJiIgQMHSut6vZ7BQNeMDzsbENw3ASOffhUPfn8Kg+9/En6R1otX1+ETMGv5TukN4dwU29E8V5TnXwIAuHp7Y+ST/4BHQHDrNryNGPVV+D3JMpRVoVbivlV7EZEwCt6hXTHxlf8hqPfAJo7g3EK9dfjfPeOhVatQYzRh3hc/4u3thwAAAyO64KuHpiCqdspsImfDO4YmuHi4I+HBZy3Ta4uweZPYWK3H5r893OD+vy7+B6a8tQIA0GfGHPSZMUfalvnLdmx+6UGHtNM7tCtmfbmj3m2+0XF4bId1riOTwYiPJsa0+Jw73/0rwoaMgqu3N9z8/DD5DevdlclohkKp6BT9DHUpFQLmj+yL6f27SY+Q/rlpP0qr9NiSbBlq+8y4QdBp1fj4volYvu8U1hw9g6pWfkFNrZZPAc43pakleMfQgKz9P+PCb/thrqnzOOCqi1z20X1Yef+oRkflnD/0CzY9Pw+FGWmw979Vc51HEKJo3/DGq59zN0ZRZ65wsYGpIiR1hlfWnbAPAAwVZVh2xxBcPHbQ+u8kAhW5l/D9c/cAJsvxjNWVDbbl6nNefY6OQAAwILwLXrh5KL599DbMGBAHQRBQYzThz2t34tcM63smW5Iz8cCyLSiq0EMQBMxO7IX1j07DO3eMwcjYsObMUNIsMTHyoN+4cWMrnYmuB0JERESH/moxY4ZlGol169a1Wxv8IuPgG9MdXqFdoa8oQ0H6SeSePgGjnr+oVZerjz+qSwohms0QFAo8mmT5Bp26eQ2S/tP4Dxp1VI+PHoDJfaJlQ0xFUcSm5Ews2X0cFfr67wQUgoDpA7phTmIvuKqtN+Y1RhM2HM9w6KgkhUKBjRs3Sl8OsrOzMX++7WSKRPbioyQ7FJxLQ8E5vrHalKqifGm53+3WR2R5Z5LbozkOYRbNUCkVEEURZ3KLsS3lLLadOoeKJh4NmUURa4+k4dujZzClbwwm941BlJ+nZZ4lB7dx6NChsjvGd955x8FnoOsNg4Fa5MHvTyFr73YcWfG+FJ7dxt+GxAWWFwCNegOSv6t/ZJczWLE/BacvF2F3+oVrGmVkFkWsP5aO9cfS4e6ixrgeEdiU7NhpP0aPHi0tZ2ZmIiWl/jmciOzFYKAWcfFwR7cJ09BtwjTrPNF1HqTveX9hh+w3sFdZtQFJqbZThVyLCn0NNhz7vemKzRQWFib11SxatMjhx6frD4OBWqTw3O/wCY22DN29EggiUFGYh62vPNrg9OTkOI8//nh7N4E6GQYDtchXc8YCsPwGg3dIFAwVZdIMrETknBgM5BD6shJcPn2svZtBRA7A9xiIiEiGwUBERDIMBiIikmEwEBGRDIOBiIhkGAxERCTDYCAiIhkGAxERyTAYiIhIhsFATsnT1QWzhsQjITJIVq5RKbHlyZnY8uRMaFRK2babekXhsVH9Eebt0ZZNJXI6nBKD2lx8kC+GRYcCAA6ezUHyRcvvOHi7aTG9fzcAQFZhCX5qZFbTkbGhmDeiN6pqjJj+v/Uwma2/NKdU2P5Omo+bFs+OHwxBELA7/QKyi8vrPe7dCfFwValgMJrw5YFTUvmY7uGI8vMGAKw/lo7CCv5IE3VeDIYGjHn2dUSPmSqtm401qMjLQVFmGi6lHkXyd8sgmu372c1roXHXwTc8BqIodro5iG6Mi8DMgZYA8NCqpWCI8NFhVkIPAEB2UXmjwfDDiQzMGhKPLp5umJvYG0v3HG/0nH+amABBEPBbdi6OX8hrsN4Dib2kH72pGwz3JvREpJ8nAOD4hTwGA3VqfJTUAM/waLh4uEt/XL294d8tHt0mTsPIJ/+OeeuPI7j3kFY7/6B7/4AZH67H7R9tgFdwZKudx5n9a/M+AMAdg+LgrlE3WC82wBtDogIhiiL+s4XTgBM1hXcMdsg+arkAeQWFwy0gGEqVAlqdDtPfX4Odb72Ik99/2c4tvD4IAEK8ddJ6cZUBXx9KQ0FFJfw8tPA2a6FWWh8jhXi5o8YkorrGiCW/HIdWo4KLSonQOsfIK6+8pl9mI+rMGAx22Pu/15CXZnlUoVBrcNPCj9B1uOV3CIY/9jKDoY3cEBuGlycn2l1/yf032ZTdP7SnbP21TfuwI+18i9tG1JkwGJrJXGPA5hfn4a6lW+EX0x1qNy2GzHkaB5fJf4DdMygMfabPQ2CvgXDz6wKFQoni7Ezkph7DiW+XoSI/x+bYCQ88B3cff1c+NM0AACAASURBVABAYN8EqXzYIy/CUFpkbYPJhJ3v/rXe9gkKBfrfMR/B/YfBLyoOxho98k+fQPL65U3+mlpQj/7ofsud0vrFY3txJmlj0/8obaTCUIOiCn2925QKy0iluoqrDBDNYr31ryitNjisfUSdBYPhGu1f8jomvf4ZAKDHLXfKgmHw/X9EwoPP2OzjERiMsEHDMeCuR/DjwgXI+OVH2fYBsx6HUmXb7RMz6mabsvqCwS+6B6YuWg1Xb29ZuU9ENLpNmIbjaz7H7vdfafAzxYyZjF7T7pXWA+L6dKhgOJJ1GXcu2WBT7q9zxTt3jIWnK7DuaBpmDIgDAOhc1DicdRkbj6Vjf2YOGo8IIrqCwXCNzu5LAkQAAqD18pVtc/GsvTCLQPGFcyjLOY/qshL4RsbCL6Y7BJWAm1/9GN/MnyI9ogKAs3t+hJtvFwCAV2hXuPlajpt/JgU11ZVSPbPJaNMerbcv7ljyIxS1Q/crCwpw+dRRaHSeCO6TAIUS6DtzLsouncexNZ848F/iGojW0VxXfsQeAMxi8y7dKqUCsxLicV9CPARBwPpj6Vi6J1kKhovF5UiICkJCVBCMJjMOnr2EZftO4ve84uY3ue5yM9tJ5GwYDC1gqjFCqVFBpdXKynNTjuDEOiX2f/IGDJXy8fIxoybhpoX/AwAMf+xvWP+U9dHNj688Ii0nzn8BA2ZZ1n98eQFKcs412pab/v6RFArHvvkUez5YKG3zCAjGvat+hVKlQOKCF3Fyw3IYDfU/kmkLn+w5gRX7UwAA1UZryCVfzMdti78DANQ0MhTYx02Luwb3wNS+0VCrlBBFEZ/tScbKgymyl9oeWbkN/h6uuDchHmO7RyAxJgSJMSE4X1iG5ftPYsfp8zZ3EVMXfwelIMB01cX/8VXboVZY7uYqDTUt+fhEHR6DoQVqqiqg1HhBEAAXnRf0ZSUAgDNJGxt8BPP7zk0wVFZB4+YKn4huDmmHq5cvQvtb+iSKs8/JQgEAyvNykPHzRnSbMA0KtRJRwycgfcf3Djn3tTCZRVQ0cHFtqBwAInx1eOnW4YiqfZ8AADLzS/Dyhj24VFpR7z4Xi8vx5taDWLT9MO4dEo97Enog3FeHF28ZhnnD+2D2Z5tk9atrbO/GAMBgNMEAjl6i6wODoQXqvuCm1rpJwXCFb0Qsuk2YAe+wrnAPCIJQ+5VeqXGR/d1SwX2t71O4efnhtvfWQJDe/rX87eJuHaIZNnBEvcFwcNm7SNv2nbReXnDJIe1zlNyyKgR5ugEA0i4X4aNdx2xeVjMYTdh0IgMqpQKmOh3PJrMZX+w/ia8Op2Le8D6Y3j8W646mtWn7iZwFg6EF1K6WixREy7fyKzRuHpj23jcI6NazgT0tFAplo9vtFRg/0HpunQdC+jX+4p0uOKLeckNlOfLSkx3SptZQXWPEX9buQrnBgKzCsnrrxAR4Y1KfaADAou2HbbYbjCZ8tOs3LN1zHEZT6725TuTMGAwtoHSxfOM3GuRDHmd+9AO8w6MAAKJRxOXUoyi/dAE1VZb+hm4TZkCldbnyZb7F3HwDpOVLJ4+i+Fx6o/XP7U9yzInbmKtGjdwKSye8v8613jqjuoUDsPQD+Lg3fUdWXKlnQBBdhcFwjfwi41A7pQ705SWy8iuhUH45B8vvGQHRLH82HTN6CqB1zGMkACjMPC0tZ+7ajKOrP3LYsTuSB4b3xm39Y+2q66ZRY9WDk5ust/bIGXy467eWNo2oU2EwXKPhT1jfB8ipnTIDACITx0nL+5a+YRMKKo0LNB5NT/tcd0ikqom+iEsnj0jL/jG9mjx2Q6ISx2HArMek9XN7k3Bk5QfXfDxHyy+vQmlVw6OpdFqNNAHeFY3VB4CiymqHtK2u0aNHY/z48dJ6UlISkpKc8y6Nrk8MhmvQZ/pchA+6AQBgNgE7Fj0vbasxWC80wb0GI23rOtm+Nz75ql2PkEovWoenBsT3RcG5hjtKL6UehWgUIagExI6dip/f/guM+vpn/1SoNTDX1P+2b2j/RAT3GSytK1WaDhUMqw+lYvWh1Hq3ebq64MsHJkGrVqG0Si+9BZ2eV4KXNuxu0/mQEhMTMXCgtd9Hr9czGMipcHZVO3QdPh4D734UE15ejHu//AUj/7hQurinbFwhe1fh4uE90nL3m2YiImGUtJ44/wX0mHyXXefMTbE+3hj++N8RPnhkg3cOotGIQ8vfAwAIKgGzv94vm/lVUCjRbewU3P3ZdizY3PlG4oR66/C/e8ZDq1ahxmjCvC9+xNvbDwEABkZ0wVcPTZENcSWixvGOwQ6D5/7RpkwUgcPL/4sDn74lKy84l4bCjDT4RsdBpXXB5De+sHybVwqWMBEB0WT5dt+Y/IwUlGRnwSssAlqdDlPeWiHbvni0fCrug8veQczoW+HbtRu0Xl6Y/v4aiCIgGk1QqK2jnzrTS7tKhYD5I/tiev9u0iOkf27aj9IqPbYkZwIAnhk3CDqtGh/fNxHL953CmqNnUNXKL6ip1fIpwPmmNDkb3jE0oL7/mI3VepTmZCPrwC58ec8Im1C4Yv3TdyH/TIq0LqgsoWAymrH9309b32Ju4nqx9rGpOLs3CcZqfZN1AeCreeNx6PP3IBotlQUBslAwVFYhffv6Bvc3m+SPWzriBU0AMCC8C164eSi+ffQ2zBgQB0EQUGM04c9rd+LXjAtS3S3JmXhg2RYUVeghCAJmJ/bC+ken4Z07xmBkbJijBoXZiImJka1v3Nhx5psisocQERHR8f7rr2PGjBkAgHXr1jVRs+PxDu2K0AHDoXH3QOburSi+kNlm5/YMDkfogOFw9wtE8fkM5Kb+htJL2W12/tbw+OgBmNwnGiql9fuMKIrYlJyJJbuPo0Jf/52AQhAwfUA3zEnsBVe19Sa5xmjChuMZDh2VpFAosHHjRukOJjs7G/Pnz3fY8YnaAh8ltaLiC5ltGgZ1leacR2nO6nY5d2sxi2aolAqIoogzucXYlnIW206da3QaDct+ItYeScO3R89gSt8YTO4bgyg/T8s8Sw5u49ChQ2Ujo955551GahN1TAwGchor9qfg9OUi7E6/cE2jjMyiiPXH0rH+WDrcXdQY1yMCm5IdG9yjR4+WljMzM5GSktJwZaIOisFATqOs2oCk1CyHHKtCX4MNx353yLHqCgsLk/pmFi1a5PDjE7UFBgORAz3++OPt3QSiFuOoJCIikmEwEBGRDIOBiIhkGAxERCTDYCAiIhkGAxERyTAYiIhIhsFAREQyDAYiIpJhMBARkQyDgYiIZBgMREQkw2AgIiIZBgMREckwGIiISIbBQEREMgwGIiKSYTAQEZEMg4GIiGQYDEREJMNgICIiGQYDERHJMBiIiEiGwUBERDIMBiIiklG1dwOcgSAIUCqV0rrZbIbZbLZrX5VK/k9sNBrt2k+hUEChsOa2yWSCKIp27UtE1BIMBjssWrQI3bt3l9arq6sxY8aMJvebNWsW7rvvPlnZ/fffj4KCgib3Xbt2LVxcXKT11NRUPPPMM3a1d968eYiJiZHWP/74Y2RlZdm1LxERg8EOgiA0um7vfgBkdwGtcU4AGDduHHx9faX16OhoBgMR2Y19DEREJMNg6ITsvSshIqoPryB2uLrT195O4Prq2dtpfa3nVCgU8PLyktaNRiP27t1r175ERAD7GOzy9NNPX9N+K1euxMqVK69p3+nTp1/TfgkJCbL+iC1btkCv11/TsYjo+sQ7hk5m1KhR0rLRaMSSJUvasTVE5IwYDJ1M7969peXvvvsONTU17dgaInJGfJTUyXh6ekIURVRXV+Pzzz9v7+YQkRNiMHQy06ZNk5bvcPfEW56B0vpzpZfxTUVpezSLiJwIHyU5uTvcPRssvxIKR2qqAABveQY2WJ+I6AoGg5Or72JfNxTeryrC9PxsvF9V1GB9IqK6GAydQN2L/dWh8GZxPgDgzeJ8WTgQETWEfQxO7v2qIvzB1QdveQZisIsr7nbxlMqvhMIVV9b/4OrT5u0kIufBYHBydS/2jYXC1fWJiBrCYOgE3izOb9YFn+FARI1hHwMREckwGIiISIbBQEREMgwGIiKSYTAQEZEMg4GIiGQYDEREJMP3GDohz+BwjHr2dfhF9wQAnNvzI35++/l2bhUROQsGQyfiF90Do5/7DwJ79peV+3br3cAeRES2GAydRMIDz2Hw7CfauxlE1Amwj6GT8A6PkZaLsjKx9e+Pt2NriMiZ8Y6hEQkPPAd3H39kH9uHs3u2oc+02YgcMQGegaEounAWx7/+GGf3/mSzX9y4aQjsNQgV+ZdxZOUHNtv7zJgH77CuKDp7BskblgMANO46jHjkrwCA9J0/YPCcp+DhH4zsI3uw4+3nETt6EvreuQBuXr44f3Andix6QXZMfUkh8tNTseutv+BS6m/QenIGVSK6NkJERITY3o1ozIwZMwAA69ata/NzL9ieCaVKgfz0VLj6+MHdL8Cmzv5P3sLhFf+Vld21dCv8YrrDZDDio4kxNvs8sP44tF5eqCjIw7LbBwMA/KPjceenW+ptR0l2FrxCIwDBWpb+8yZsXfhog23XevrggQ2/AQAup57A2kcmN/l5iYgAPkqyi39sD7j7BaCqqAjZh/eg7NJFadvguc9AUCgde0IRyE9PhVgb2V5hllAoyEiTyqISxzn2nEREtRgMdjq3bwc+m94fG56dheV3J+LisYMAAKVKgdixUxx6rhPrPsfXD92Ew8vek8pSfvgaqx+YgF8/eBUAoNK6QOOuc+h5iYgABoNdRBHYuvAxWdmBpW9Iy76RcQ4938Xj+wEAl04dlspyTljKLicfkso8/PgTnUTkeAwGO1QW5qGmqkJWlnfmpLTsERDi0PMZykosf5eWSGX62mV9ealU5urr79DzEhEBDAa7VBUV2JTVDQqVi4tDz2eoKK89R6W1rLIMAKCvKpfKNG58lEREjsdgsIPZVNO256vtYRZFs1QmmmvLzOZ69yEichQGQyto6uKtVDv2DoOIyJH4glsrMOqrAAAKdf3/vCpXbVs2x27h4eFYsGCBtJ6ZmYmlS5e2Y4uIqD0wGFpBed4lAIAgAH6RcSg4lyZt6zNtNgShoT3bV1RUFAYOHCitR0dHMxiIrkMMhlZwKfkQYsdMAgBMev1zrH5wIgyV5YgcOhrDn1jYaueNHDoausBwAIDGzUMq9/APRO+p90vr6Tu+R3VpUau1g4icG4OhFZz49jMMf+SvUKiV0AWH4qFNJyGKljsIiLAuO9jY59+Fq4/tHEnu/l1w4zP/lNarS4uQvuN7m3pqtVq2LooderYUImol7HxuhHDlwmhu/AJpvuoCKprN+OGFOTAZrZ3QggCIRhFJbzyH6pLi2orW/USTqc4BTbV/WcuudGjLRyrV2QfNuJBftd8VgwYNkq3v27fPvuMRUafCSfRakUKtQdiARATE9UX2wV24fPpYezepUcuWLUNAgGWiQKPRiJkzZ8JgMLRzq4iorfFRUisy1xiQdWAnsg7sbO+mNEmhUMDf3/om9Q8//MBQILpO8VESAQASExMh1HZ81NTUcDQS0XWMdwwEAOjdu7fUR7FmzRoYjcZ2bhERtRf2MRARkQwfJRERkQyDgYiIZBgMREQkw2AgIiIZBgMREckwGIiISIbBQEREMgwGIiKSYTAQEZEMg4GIiGQYDEREJMNgICIiGQZDJ+Xm1wUqF9f2bgYROSFOu91J+EfHY/CcpxE+ZBTUrlqg9jelRaOIovPp2P7qE8jPSGnfRhKRU+AdQydx56dbED3qJqjdrKEAAIJKgG/Xbrjz0y3of8fD7ddAInIavGPoZCoLCnDx6K+4lHIUSpUa8ZPvgXd4FAAg8bG/4fyBnSg4l9a+jSSiDo3B0EnkpZ3EwU/fwtl9SbLyo6s/xO2LNyCwZz8IAtDvrvlIeuO5dmolETkDBkMjEh54Du4+/sg+tg9n92xDn2mzETliAjwDQ1F04SyOf/0xzu79yWa/uHHTENhrECryL+PIyg9stveZMQ/eYV1RdPYMkjcsBwBo3HUY8chfAQDpO3/A4DlPwcM/GNlH9mDH288jdvQk9L1zAdy8fHH+4E7sWPSC7JjfzJ/U4OfY9/G/MO3d1QCALj36XfO/BxFdHxgMjRgw63EoVQoExA/A8Ef/Bne/AGmbe5cghA0Yhv2fvIXDK/5rs59fTHeYDMZ6g2HInKeh9fJCRUGeFAyegWGIn3IPAEh/A0D8rXcipN8weIVGSH0HPafOgkbnja0LH7Xrc5gMNdKy2WSy78MT0XWLnc928I/tAXe/AFQVFSH78B6UXboobRs89xkICqVjTygC+empEGt/jdsrzBIKBRlpUllU4ji7Dxcz6hZp+cKRPY5sKRF1QgwGO53btwOfTe+PDc/OwvK7E3Hx2EEAgFKlQOzYKQ4914l1n+Prh27C4WXvSWUpP3yN1Q9MwK8fvAoAUGldoHHXNXksjbsOfWY8YFkRgZQfVjm0rUTU+TAY7CCKwNaFj8nKDix9Q1r2jYxz6PkuHt8PALh06rBUlnPCUnY5+ZBU5uEX2OSxpr61Egq15Y7m1MaVKMxKd2RTiagTYjDYobIwDzVVFbKyvDMnpWWPgBCHns9QVmL5u7REKtPXLuvLS6UyV1//Ro+TMPcZdInvC8AyjPXqDmsiovowGOxQVVRgU1Y3KFQuLg49n6GivPYcldayyjIAgL6qXCrTuDX8KKnX5HsxeO4fAQAmgxFrHrnVoW0kos6LwWAHs6mm6UqOPF9tD7MomqUy0VxbZjbXu09d0TdMxKhn/2U5lglY+8hklOfltEJLiagzYjC0gqYu3kq1Y+8w6gobMBw3vboEECx9I98/dw/nSCKiZuF7DK3AqK8CACjU9f/zqly1rXLegLi+mPzWKggCABH48aWHkX30V7v3Dw8Px4IFC6T1zMxMLF26tBVaSkQdGYOhFZTnXQIACALgFxknm5uoz7TZlgu3g/lGxGLG4vW48kpF0r+fQcburc06RlRUFAYOHCitR0dHMxiIrkMMhlZwKfkQYsdYpqiY9PrnWP3gRBgqyxE5dDSGP7HQ4efTuOswc8lmKFWWJ4MXjx2E2sMTfWbMs6lbWXAZv+/c5PA2EFHnwWBoBSe+/QzDH/krFGoldMGheGjTSYgipEc80rKD6AJDoXLRSOsh/YYgpN+QeuvWVFU3GAxqtVq2Ll55zZqIrivsfG6EcOXCaG78Amm+6gIqms344YU5MBmtndCCYPnRnKQ3nkN1SXFtRet+Yt05jMym2r+sZVc6tOUjlWq3m5oeqWTdqeFNgwYNkq3v27fP/uMSUachREREdOivhTNmzAAArFu3rp1b0nwKtQZhAxIRENcX2Qd34fLpY+3dpEYtW7YMAQGWiQKNRiNmzpwJg8HQzq0iorbGR0mtyFxjQNaBncg6sLO9m9IkhUIBf3/rm9Q//PADQ4HoOsVHSQQASExMhFDb8VFTU8PRSETXMd4xEACgd+/eUmfzmjVrYDQa27lFRNRe2MdAREQyfJREREQyDAYiIpJhMBARkQyDgYiIZBgMREQk4zTDVd3c3Nq7CURE1wXeMRARkQyDgYiIZBgMREQk4zR9DFdUVla2dxOIiDo13jEQEZEMg4GIiGSc7lESOV7C3GcQOXy8Tfn+T/7jFL8lQUSOxWAghA8bi4C4XjblXbr3szsY/CLjoHZ1Q3nBZZTn5Ti6iUTUhhgMhONff4Sg3kMAAO5+QYgedVOzj3HHJ1ugUCuRl3YS38yf5OgmElEbYjAQziRtxJmkjQCAgNje1xQMRNR5sPOZiIhkeMdgh8T5L0Cr80L20T04k7QRgT0HoNfkexE6YDiMNQbkpf6GPR/8A1UlhbL9BIUC/e+Yj+D+w+AXFQdjjR75p08gef1y5CQfbPSc3cbfhvhb74EuIAQqrRb60mKUXMhCyqaVOLv3J5v6ceOmIbDXIFTkX8aRlR/YbO8zYx68w7qi6OwZJG9Y3rJ/EACBPQeg5y13WT+rSgkA8AqOxJhnX5fVzfx1W71tJqKOicFgh353PQKFEvCOikNU4gR0mzBNtt0noiuC+gzBintGSGV+0T0wddFquHp7X1U3Gt0mTMPxNZ9j9/uv2JxLUCgwa/lOeIVGyMrd/bvANzoOXUeOx573X8WxNZ/Itg+Y9Tj8YrrDZDDWGwxD5jwNrZcXKgryHBIM0TfcjPgp99iUa3QeNuVav0AGA5ETYTA0g19MTwT3GQQAMJSVo7zwMrQ6H7j5+kIQrE/ltN6+uGPJj1BYvkSjsqAAl08dhUbnieA+CVAogb4z56Ls0nmbC/y45xdJoWAyGFF49jSKz6bDPTAEAd36QO2mhUKpbJsP3IicEwcQdGKItB7cexAgAEa9AXlpJ2R1sxgKRE6FwdAMGjdXiEYRPy5cgIxffpTKA2J7oesN1g7bm/7+kRQKx775FHs+WCht8wgIxr2rfoVSpUDighdxcsNyGA16aXvYoBstCyKwYtYNqMiXD/2MGzcNhZlprfDpmufs3p9kdwGPbMuAQq1E0bkz+PaJGe3YMiJqKXY+N9Pu/74sCwUAyEs/iQOfLwIAuHr5IrR/AgCgOPucLBQAoDwvBxk/W0YAKdRKRA2fINuu8dABAEw1RptQAIC0n9YjPyPFMR+GiKgevGNoBqPegBPrv2i0TnBf6+MVNy8/3PbeGggKobbE8reLu06qEzZwBNJ3fC+tVxcXwCMwGEqNCtP/uxYHP30b2Ud/ddyHICJqAoOhGaqK8pusExg/UFrW6DwQ0m9II7UBXbC8k3nvR69hwsvvAwCC+wzG1HdWQRSByoJcHFm5GCfWfXYNLScish+DoRkqC/OarOPmGyAtXzp5FMXn0hutf25/kmz9TNJGmAx6jHzqNbj7dwEACIJlVNLIJ/+OhAf+hO+fvQeXTx+7hk9ARNQ0BkMzmE3GJusUZp6WljN3bcbR1R81+zwZu7ciY/dWaNw8ED3qFvSZPg8B3XoBAuDi4Y4Jf18sGxoLAKLZ3OgxlWqXZreDiK5PDAYHu3TyiLTsH2M7MV1zGCrLkbr5G6Ru/gZufl0wZ81BCALg0SXMpq5RXwUAUKjr/59U5aq175wVZdKyb2Rcs9usUPL/UkTOjqOSHOxS6lGIRhEAEDt2KlQurg3WVag1dh+3siAXhrLSBreX510CYHns5HfVBb3PtNkQhPr2slWSc05aDuzbeP9IXTVVFQAAN79Au/choo6JweBgotGIQ8vfAwAIKgGzv96P4N7WC6ygUKLb2Cm4+7PtWLDZ9n2EhzalYtq73yCkb4JUpnHXYeiDf4KLpycAoKoo12a/S8mHpOVJr38OjZsHACBy6GgMf2KhTf3GVBZapvbQdQnCtHe/RlDPQfCNiIVncHiD+5TnW4LJ1dsbI5/8BzwCgpt1TiLqOISIiAixvRvRmBkzLC9LbdmyBUD7/ObzIz+dg0IJ5Jw4bPfLW3d/th2+XbtJ66IIiEYTFGqlrOx/YyLrPZelAmA0GKBykd9ZbH35EaTv2iwrExQKLPgx3eb4gmA5jgjLckVBHpbdPrjRtsfeeAsm/uND2w0isPiq9l4RPngkpry1ot5tmb9sx+aXHmz0nETUcfCOoRma6uCt66t543Ho8/ekx0qCANlF21BZhfTt6232y087DrOpdkWALBQMlVXY8ebzNqFwpW0/vDAHJqO1jYIAiEYRSW88h+qS4tqKTX8PSN+1GVv+9jCqiorsqQ4AOH/oF2x6fh4KM9Ls3oeIOibeMbQBz+BwhA4YDne/QBSfz0Bu6m8ovZTd6D6B3fvBN6YHdF1CUZZ7AflpJ5GXntzkuRRqDcIGJCIgri+yD+7isFYiajYGAxERyfBREhERyTAYiIhIhsFAREQyDAYiIpJxuvkL3Nzc2rsJRESdGu8YiIhIhsFAREQyDAYiIpLp8H0MQUFBAIC5c+c2a7/Fixe3QmuIiDo/3jEQEZFMh79juOLdpf9nV72nHnyylVtCRNS58Y6BiIhkGAxERCTDYCAiIhmn6WP4duFFDOsLiAagvBr4+Tfgr58GIL9E3d5NIyLqVJzmjkHnBkAABBdA5wVMHQX8/FZeezeLiKjTcZpguPXFIAyY54e5/wQqSi1l/gHAgNiC9m0YEVEn4zTBoK9R4FKRC348FIKFy63lfWP07dcoIqJOyGmCoa7T55XScmSXdmwIEVEn5JTBUK13kZYVQjs2hIioE3KaUUmOMHbsWMTHx0vrmzdvRkZGRju2iIio43H6YPByt7/uzJkzERUVJa0XFRUxGIiIruKUj5Ky8jyk5VF927EhRESdkFMGQ3G5CjBZloODAD/PmvZtEBFRJ+K0j5L+uxZ44k4AApD8WR5SMoGLBYDOZwl+Pv1wezePiMhpOW0w/GtlCHYcy8Gnz4nw8gHiYy1/TPrf8fPp+vf529/+Bh8fH2n94sWLbdRaIiLn4bTB8Mjki3jlQQACABE4lw2czwO0nsEN7lNYWIjCwsI2ayMRkTNy2mB4ZQ4soQBg5kvAnuQQAPyhHiKilnLKzmdPNxNQO6lqSZE1FIiIqOWc8o4hKrBMWt52xP79Ro8ejfHjx0vrSUlJSEpKcmTTiIicnlMGQ10FJfbXTUxMxMCBA6V1vV7PYCAiuopTPkpSKk3t3QQiok7LKYMhxM861XZz7hjUavmvvYmi6KgmERF1Gk4ZDLMnWpdTztu/X0xMjGx948aNDmoREVHn4TR9DG88fBFTEwEvDwCa2kIj8OvJILv2V6lU8Pf3l9azs7Nx7NgxxzeUiMjJOU0wDIwDvHyt68Zq4E8fAZV6+256hg8fDkGw/njDO++84+gmEhF1Ck4TDK8sA3pHAtn5QMZFHVLO65q1/4033igtZ2ZmIiUlxdFNJCLqFJwmGPYkh2BP8rXv/9NPPyE7OxsAsG3bNge1ioio83GaYGipvXv3Yu/eve3dN0ceEgAAAEdJREFUDCKiDs8pRyUREVHrYTAQEZEMg4GIiGScpo+B02kTEbUN3jEQEZGMEBERwQmDiIhIwjsGIiKSYTAQEZEMg4GIiGT+H1FSyVZQOakjAAAAAElFTkSuQmCC;" vertex="1" parent="1">
                    <mxGeometry x="310" y="90" width="390" height="310" as="geometry"/>
                </mxCell>
            </root>
        </mxGraphModel>
    </diagram>
</mxfile>